<svg id="visual" viewBox="0 0 1440 540" width="1440" height="540" xmlns="http://www.w3.org/2000/svg" xmlns:xlink="http://www.w3.org/1999/xlink" version="1.1"><rect x="0" y="0" width="1440" height="540" fill="#cc9d10"></rect><path d="M0 164L20 156.7C40 149.3 80 134.7 120 129.7C160 124.7 200 129.3 240 139.2C280 149 320 164 360 170.2C400 176.3 440 173.7 480 172.3C520 171 560 171 600 160C640 149 680 127 720 118.3C760 109.7 800 114.3 840 125.8C880 137.3 920 155.7 960 165.3C1000 175 1040 176 1080 168.7C1120 161.3 1160 145.7 1200 143.5C1240 141.3 1280 152.7 1320 154C1360 155.3 1400 146.7 1420 142.3L1440 138L1440 0L1420 0C1400 0 1360 0 1320 0C1280 0 1240 0 1200 0C1160 0 1120 0 1080 0C1040 0 1000 0 960 0C920 0 880 0 840 0C800 0 760 0 720 0C680 0 640 0 600 0C560 0 520 0 480 0C440 0 400 0 360 0C320 0 280 0 240 0C200 0 160 0 120 0C80 0 40 0 20 0L0 0Z" fill="#f5e980"></path><path d="M0 119L20 125.3C40 131.7 80 144.3 120 147.3C160 150.3 200 143.7 240 134.2C280 124.7 320 112.3 360 105.8C400 99.3 440 98.7 480 105.3C520 112 560 126 600 127.3C640 128.7 680 117.3 720 109.3C760 101.3 800 96.7 840 102.8C880 109 920 126 960 129.3C1000 132.7 1040 122.3 1080 113.2C1120 104 1160 96 1200 93.3C1240 90.7 1280 93.3 1320 95.8C1360 98.3 1400 100.7 1420 101.8L1440 103L1440 0L1420 0C1400 0 1360 0 1320 0C1280 0 1240 0 1200 0C1160 0 1120 0 1080 0C1040 0 1000 0 960 0C920 0 880 0 840 0C800 0 760 0 720 0C680 0 640 0 600 0C560 0 520 0 480 0C440 0 400 0 360 0C320 0 280 0 240 0C200 0 160 0 120 0C80 0 40 0 20 0L0 0Z" fill="#f5e66f"></path><path d="M0 85L20 84.2C40 83.3 80 81.7 120 85.8C160 90 200 100 240 103.8C280 107.7 320 105.3 360 101C400 96.7 440 90.3 480 92.3C520 94.3 560 104.7 600 105.2C640 105.7 680 96.3 720 95.7C760 95 800 103 840 103.5C880 104 920 97 960 96.5C1000 96 1040 102 1080 100.8C1120 99.7 1160 91.3 1200 85.7C1240 80 1280 77 1320 84.2C1360 91.3 1400 108.7 1420 117.3L1440 126L1440 0L1420 0C1400 0 1360 0 1320 0C1280 0 1240 0 1200 0C1160 0 1120 0 1080 0C1040 0 1000 0 960 0C920 0 880 0 840 0C800 0 760 0 720 0C680 0 640 0 600 0C560 0 520 0 480 0C440 0 400 0 360 0C320 0 280 0 240 0C200 0 160 0 120 0C80 0 40 0 20 0L0 0Z" fill="#f5e35d"></path><path d="M0 77L20 76C40 75 80 73 120 75.2C160 77.3 200 83.7 240 86C280 88.3 320 86.7 360 81.7C400 76.7 440 68.3 480 66C520 63.7 560 67.3 600 68.8C640 70.3 680 69.7 720 71.8C760 74 800 79 840 84C880 89 920 94 960 90.2C1000 86.3 1040 73.7 1080 65.3C1120 57 1160 53 1200 54.3C1240 55.7 1280 62.3 1320 68C1360 73.7 1400 78.3 1420 80.7L1440 83L1440 0L1420 0C1400 0 1360 0 1320 0C1280 0 1240 0 1200 0C1160 0 1120 0 1080 0C1040 0 1000 0 960 0C920 0 880 0 840 0C800 0 760 0 720 0C680 0 640 0 600 0C560 0 520 0 480 0C440 0 400 0 360 0C320 0 280 0 240 0C200 0 160 0 120 0C80 0 40 0 20 0L0 0Z" fill="#f5e049"></path><path d="M0 30L20 31.2C40 32.3 80 34.7 120 40.3C160 46 200 55 240 57.5C280 60 320 56 360 54.2C400 52.3 440 52.7 480 55.8C520 59 560 65 600 64C640 63 680 55 720 49.8C760 44.7 800 42.3 840 43.7C880 45 920 50 960 54.8C1000 59.7 1040 64.3 1080 67.7C1120 71 1160 73 1200 70C1240 67 1280 59 1320 58.3C1360 57.7 1400 64.3 1420 67.7L1440 71L1440 0L1420 0C1400 0 1360 0 1320 0C1280 0 1240 0 1200 0C1160 0 1120 0 1080 0C1040 0 1000 0 960 0C920 0 880 0 840 0C800 0 760 0 720 0C680 0 640 0 600 0C560 0 520 0 480 0C440 0 400 0 360 0C320 0 280 0 240 0C200 0 160 0 120 0C80 0 40 0 20 0L0 0Z" fill="#f5dd31"></path><path d="M0 29L20 29C40 29 80 29 120 28.3C160 27.7 200 26.3 240 27C280 27.7 320 30.3 360 30.7C400 31 440 29 480 29.2C520 29.3 560 31.7 600 34.8C640 38 680 42 720 39.2C760 36.3 800 26.7 840 21C880 15.3 920 13.7 960 13C1000 12.3 1040 12.7 1080 18C1120 23.3 1160 33.7 1200 38.3C1240 43 1280 42 1320 38.7C1360 35.3 1400 29.7 1420 26.8L1440 24L1440 0L1420 0C1400 0 1360 0 1320 0C1280 0 1240 0 1200 0C1160 0 1120 0 1080 0C1040 0 1000 0 960 0C920 0 880 0 840 0C800 0 760 0 720 0C680 0 640 0 600 0C560 0 520 0 480 0C440 0 400 0 360 0C320 0 280 0 240 0C200 0 160 0 120 0C80 0 40 0 20 0L0 0Z" fill="#f5da04"></path></svg>