<svg id="visual" viewBox="0 0 1440 540" width="1440" height="540" xmlns="http://www.w3.org/2000/svg" xmlns:xlink="http://www.w3.org/1999/xlink" version="1.1"><rect x="0" y="0" width="1440" height="540" fill="#cc9d10"></rect><path d="M0 374L20 381.3C40 388.7 80 403.3 120 408.3C160 413.3 200 408.7 240 398.8C280 389 320 374 360 367.8C400 361.7 440 364.3 480 365.7C520 367 560 367 600 378C640 389 680 411 720 419.7C760 428.3 800 423.7 840 412.2C880 400.7 920 382.3 960 372.7C1000 363 1040 362 1080 369.3C1120 376.7 1160 392.3 1200 394.5C1240 396.7 1280 385.3 1320 384C1360 382.7 1400 391.3 1420 395.7L1440 400L1440 541L1420 541C1400 541 1360 541 1320 541C1280 541 1240 541 1200 541C1160 541 1120 541 1080 541C1040 541 1000 541 960 541C920 541 880 541 840 541C800 541 760 541 720 541C680 541 640 541 600 541C560 541 520 541 480 541C440 541 400 541 360 541C320 541 280 541 240 541C200 541 160 541 120 541C80 541 40 541 20 541L0 541Z" fill="#f5e980"></path><path d="M0 419L20 412.7C40 406.3 80 393.7 120 390.7C160 387.7 200 394.3 240 403.8C280 413.3 320 425.7 360 432.2C400 438.7 440 439.3 480 432.7C520 426 560 412 600 410.7C640 409.3 680 420.7 720 428.7C760 436.7 800 441.3 840 435.2C880 429 920 412 960 408.7C1000 405.3 1040 415.7 1080 424.8C1120 434 1160 442 1200 444.7C1240 447.3 1280 444.7 1320 442.2C1360 439.7 1400 437.3 1420 436.2L1440 435L1440 541L1420 541C1400 541 1360 541 1320 541C1280 541 1240 541 1200 541C1160 541 1120 541 1080 541C1040 541 1000 541 960 541C920 541 880 541 840 541C800 541 760 541 720 541C680 541 640 541 600 541C560 541 520 541 480 541C440 541 400 541 360 541C320 541 280 541 240 541C200 541 160 541 120 541C80 541 40 541 20 541L0 541Z" fill="#f5e66f"></path><path d="M0 453L20 453.8C40 454.7 80 456.3 120 452.2C160 448 200 438 240 434.2C280 430.3 320 432.7 360 437C400 441.3 440 447.7 480 445.7C520 443.7 560 433.3 600 432.8C640 432.3 680 441.7 720 442.3C760 443 800 435 840 434.5C880 434 920 441 960 441.5C1000 442 1040 436 1080 437.2C1120 438.3 1160 446.7 1200 452.3C1240 458 1280 461 1320 453.8C1360 446.7 1400 429.3 1420 420.7L1440 412L1440 541L1420 541C1400 541 1360 541 1320 541C1280 541 1240 541 1200 541C1160 541 1120 541 1080 541C1040 541 1000 541 960 541C920 541 880 541 840 541C800 541 760 541 720 541C680 541 640 541 600 541C560 541 520 541 480 541C440 541 400 541 360 541C320 541 280 541 240 541C200 541 160 541 120 541C80 541 40 541 20 541L0 541Z" fill="#f5e35d"></path><path d="M0 461L20 462C40 463 80 465 120 462.8C160 460.7 200 454.3 240 452C280 449.7 320 451.3 360 456.3C400 461.3 440 469.7 480 472C520 474.3 560 470.7 600 469.2C640 467.7 680 468.3 720 466.2C760 464 800 459 840 454C880 449 920 444 960 447.8C1000 451.7 1040 464.3 1080 472.7C1120 481 1160 485 1200 483.7C1240 482.3 1280 475.7 1320 470C1360 464.3 1400 459.7 1420 457.3L1440 455L1440 541L1420 541C1400 541 1360 541 1320 541C1280 541 1240 541 1200 541C1160 541 1120 541 1080 541C1040 541 1000 541 960 541C920 541 880 541 840 541C800 541 760 541 720 541C680 541 640 541 600 541C560 541 520 541 480 541C440 541 400 541 360 541C320 541 280 541 240 541C200 541 160 541 120 541C80 541 40 541 20 541L0 541Z" fill="#f5e049"></path><path d="M0 508L20 506.8C40 505.7 80 503.3 120 497.7C160 492 200 483 240 480.5C280 478 320 482 360 483.8C400 485.7 440 485.3 480 482.2C520 479 560 473 600 474C640 475 680 483 720 488.2C760 493.3 800 495.7 840 494.3C880 493 920 488 960 483.2C1000 478.3 1040 473.7 1080 470.3C1120 467 1160 465 1200 468C1240 471 1280 479 1320 479.7C1360 480.3 1400 473.7 1420 470.3L1440 467L1440 541L1420 541C1400 541 1360 541 1320 541C1280 541 1240 541 1200 541C1160 541 1120 541 1080 541C1040 541 1000 541 960 541C920 541 880 541 840 541C800 541 760 541 720 541C680 541 640 541 600 541C560 541 520 541 480 541C440 541 400 541 360 541C320 541 280 541 240 541C200 541 160 541 120 541C80 541 40 541 20 541L0 541Z" fill="#f5dd31"></path><path d="M0 509L20 509C40 509 80 509 120 509.7C160 510.3 200 511.7 240 511C280 510.3 320 507.7 360 507.3C400 507 440 509 480 508.8C520 508.7 560 506.3 600 503.2C640 500 680 496 720 498.8C760 501.7 800 511.3 840 517C880 522.7 920 524.3 960 525C1000 525.7 1040 525.3 1080 520C1120 514.7 1160 504.3 1200 499.7C1240 495 1280 496 1320 499.3C1360 502.7 1400 508.3 1420 511.2L1440 514L1440 541L1420 541C1400 541 1360 541 1320 541C1280 541 1240 541 1200 541C1160 541 1120 541 1080 541C1040 541 1000 541 960 541C920 541 880 541 840 541C800 541 760 541 720 541C680 541 640 541 600 541C560 541 520 541 480 541C440 541 400 541 360 541C320 541 280 541 240 541C200 541 160 541 120 541C80 541 40 541 20 541L0 541Z" fill="#f5da04"></path></svg>